<svg width="442" height="442" viewBox="0 0 442 442" fill="none" xmlns="http://www.w3.org/2000/svg">
<path d="M221 0L316.03 56.4032L412.392 110.5L411.06 221L412.392 331.5L316.03 385.597L221 442L125.97 385.597L29.6084 331.5L30.94 221L29.6084 110.5L125.97 56.4032L221 0Z" fill="#181818"/>
<rect x="161.904" y="132.825" width="118.193" height="108.5" rx="54.25" stroke="white" stroke-width="2"/>
<path d="M156.375 236.203C163.4 236.203 169.095 230.508 169.095 223.483C169.095 216.458 163.4 210.763 156.375 210.763C149.35 210.763 143.655 216.458 143.655 223.483C143.655 230.508 149.35 236.203 156.375 236.203Z" stroke="white" stroke-width="3"/>
<circle cx="287.563" cy="223.483" r="12.72" stroke="white" stroke-width="3"/>
<path d="M221.969 284.535C257.594 284.535 286.474 255.655 286.474 220.031C286.474 184.406 257.594 155.526 221.969 155.526C186.344 155.526 157.465 184.406 157.465 220.031C157.465 255.655 186.344 284.535 221.969 284.535Z" fill="#111111" stroke="white" stroke-width="3"/>
<path d="M278.069 188.96C267.137 194.426 245.963 207.775 234.915 210.537C221.106 216.578 197.803 215.715 190.036 212.263C182.268 208.811 173.925 202.769 177.089 193.275C178.816 188.097 187.446 186.371 193.488 192.412" stroke="white" stroke-width="3" stroke-linecap="round"/>
<ellipse cx="189.173" cy="226.935" rx="6.04152" ry="6.04151" fill="white"/>
<ellipse cx="256.492" cy="226.935" rx="6.04153" ry="6.04151" fill="white"/>
<path d="M208.16 232.977C212.763 239.018 224.731 247.476 235.779 232.977" stroke="white" stroke-width="3" stroke-linecap="round"/>
<path d="M168.658 162.842L180.289 166.719L178.351 149.272L194.829 157.026L198.706 137.64L212.276 152.18L219.061 134.732L228.754 152.18L239.416 137.64L244.263 157.026L258.802 147.333V162.842L270.434 159.934" stroke="white"/>
<circle cx="229.724" cy="140.548" r="0.969301" fill="white"/>
<ellipse cx="237.478" cy="148.303" rx="0.969288" ry="0.969295" fill="white"/>
<circle cx="247.17" cy="146.364" r="0.969301" fill="white"/>
<circle cx="254.925" cy="154.118" r="0.969301" fill="white"/>
<ellipse cx="262.68" cy="156.057" rx="0.969301" ry="0.969295" fill="white"/>
<circle cx="268.496" cy="165.75" r="0.969288" fill="white"/>
<circle cx="220.03" cy="146.364" r="0.969301" fill="white"/>
<ellipse cx="210.337" cy="140.548" rx="0.969295" ry="0.969301" fill="white"/>
<circle cx="202.584" cy="150.241" r="0.969301" fill="white"/>
<ellipse cx="190.953" cy="148.303" rx="0.969301" ry="0.969295" fill="white"/>
<circle cx="185.136" cy="157.996" r="0.969301" fill="white"/>
<ellipse cx="175.443" cy="159.934" rx="0.969295" ry="0.969301" fill="white"/>
</svg>
