<svg width="952" height="194" viewBox="0 0 952 194" fill="none" xmlns="http://www.w3.org/2000/svg">
<path d="M322.885 4.0625H332.406L319.369 90H307.602L293.295 4.0625H302.914L308.627 40.4395L313.51 72.4219H313.705L317.953 40.4395L322.885 4.0625ZM354.197 4.0625H364.305V90H354.197V4.0625ZM390.197 4.0625H408.215C413.326 4.0625 417.004 5.12044 419.25 7.23633C421.496 9.35221 422.847 12.9492 423.303 18.0273C423.498 20.1107 423.596 23.3659 423.596 27.793C423.596 32.1875 423.01 35.8822 421.838 38.877C420.699 41.8717 418.664 43.8086 415.734 44.6875C417.883 45.0456 419.51 46.1849 420.617 48.1055C421.724 49.9935 422.505 53.0208 422.961 57.1875C423.417 61.3216 423.645 67.4902 423.645 75.6934C423.645 83.8639 423.905 88.6328 424.426 90H414.367C413.846 88.9583 413.586 79.3066 413.586 61.0449C413.586 54.8926 412.984 51.3281 411.779 50.3516C410.575 49.3424 408.752 48.8379 406.311 48.8379L400.305 48.4961V90H390.197V4.0625ZM413.586 25.1074C413.586 18.4993 412.984 14.6745 411.779 13.6328C410.607 12.5911 408.898 12.0703 406.652 12.0703H400.305V41.0742H406.75C408.703 41.0742 410.135 40.6999 411.047 39.9512C411.958 39.2025 412.609 37.7702 413 35.6543C413.391 33.5384 413.586 30.2181 413.586 25.6934V25.1074ZM442.115 4.0625H470.484V12.4609H461.646V90H451.588V12.4609H442.115V4.0625ZM513.32 4.0625H523.379V67.9297C523.379 75.9701 522.109 81.8294 519.57 85.5078C517.064 89.1862 512.702 91.0254 506.484 91.0254C500.267 91.0254 495.872 89.1862 493.301 85.5078C490.729 81.8294 489.443 75.9701 489.443 67.9297V4.0625H499.551V67.6855C499.551 73.4147 499.779 76.849 500.234 77.9883C500.723 79.0951 501.227 79.974 501.748 80.625C502.66 81.862 504.238 82.4805 506.484 82.4805C508.73 82.4805 510.391 81.7969 511.465 80.4297C512.539 79.0625 513.109 77.028 513.174 74.3262C513.271 71.6243 513.32 69.4271 513.32 67.7344V4.0625ZM557.23 4.0625H569.389L583.598 90H574.076L571.635 73.5938H556.059L553.812 90H544.193L557.23 4.0625ZM557.182 65.3906H570.365L563.578 19.9805H563.432L557.182 65.3906ZM604.9 4.0625H615.008V81.6504H630.877V90H604.9V4.0625Z" fill="#181818"/>
<path d="M36.6428 184.42C31.7895 184.42 27.4028 183.347 23.4828 181.2C19.6095 179.053 16.5528 176.09 14.3128 172.31C12.1195 168.483 11.0228 164.213 11.0228 159.5C11.0228 154.787 12.1195 150.54 14.3128 146.76C16.5528 142.933 19.6328 139.947 23.5528 137.8C27.4728 135.653 31.8595 134.58 36.7128 134.58C40.3528 134.58 43.7128 135.187 46.7928 136.4C49.8728 137.613 52.4861 139.387 54.6328 141.72L51.3428 145.01C47.5161 141.137 42.6861 139.2 36.8528 139.2C32.9795 139.2 29.4561 140.087 26.2828 141.86C23.1095 143.633 20.6128 146.06 18.7928 149.14C17.0195 152.22 16.1328 155.673 16.1328 159.5C16.1328 163.327 17.0195 166.78 18.7928 169.86C20.6128 172.94 23.1095 175.367 26.2828 177.14C29.4561 178.913 32.9795 179.8 36.8528 179.8C42.7328 179.8 47.5628 177.84 51.3428 173.92L54.6328 177.21C52.4861 179.543 49.8495 181.34 46.7228 182.6C43.6428 183.813 40.2828 184.42 36.6428 184.42ZM71.2753 135H76.4553V184H71.2753V135ZM138.191 135L116.491 184H111.381L89.6815 135H95.2815L114.041 177.56L132.941 135H138.191ZM150.903 135H156.083V184H150.903V135ZM177.626 135H182.806V179.52H210.246V184H177.626V135ZM281.827 184L270.627 168.25C269.367 168.39 268.06 168.46 266.707 168.46H253.547V184H248.367V135H266.707C272.96 135 277.86 136.493 281.407 139.48C284.954 142.467 286.727 146.573 286.727 151.8C286.727 155.627 285.747 158.87 283.787 161.53C281.874 164.143 279.12 166.033 275.527 167.2L287.497 184H281.827ZM266.567 164.05C271.42 164.05 275.13 162.977 277.697 160.83C280.264 158.683 281.547 155.673 281.547 151.8C281.547 147.833 280.264 144.8 277.697 142.7C275.13 140.553 271.42 139.48 266.567 139.48H253.547V164.05H266.567ZM339.203 179.52V184H304.553V135H338.153V139.48H309.733V156.91H335.073V161.32H309.733V179.52H339.203ZM391.216 159.5H396.186V178.19C393.899 180.197 391.192 181.737 388.066 182.81C384.939 183.883 381.649 184.42 378.196 184.42C373.296 184.42 368.886 183.347 364.966 181.2C361.046 179.053 357.966 176.09 355.726 172.31C353.486 168.483 352.366 164.213 352.366 159.5C352.366 154.787 353.486 150.54 355.726 146.76C357.966 142.933 361.046 139.947 364.966 137.8C368.886 135.653 373.319 134.58 378.266 134.58C381.999 134.58 385.429 135.187 388.556 136.4C391.682 137.567 394.319 139.317 396.466 141.65L393.246 144.94C389.372 141.113 384.449 139.2 378.476 139.2C374.509 139.2 370.916 140.087 367.696 141.86C364.522 143.587 362.026 146.013 360.206 149.14C358.386 152.22 357.476 155.673 357.476 159.5C357.476 163.327 358.386 166.78 360.206 169.86C362.026 172.94 364.522 175.367 367.696 177.14C370.869 178.913 374.439 179.8 378.406 179.8C383.446 179.8 387.716 178.54 391.216 176.02V159.5ZM416.446 135H421.626V184H416.446V135ZM456.679 184.42C453.039 184.42 449.539 183.837 446.179 182.67C442.866 181.503 440.299 179.963 438.479 178.05L440.509 174.06C442.283 175.833 444.639 177.28 447.579 178.4C450.519 179.473 453.553 180.01 456.679 180.01C461.066 180.01 464.356 179.217 466.549 177.63C468.743 175.997 469.839 173.897 469.839 171.33C469.839 169.37 469.233 167.807 468.019 166.64C466.853 165.473 465.406 164.587 463.679 163.98C461.953 163.327 459.549 162.627 456.469 161.88C452.783 160.947 449.843 160.06 447.649 159.22C445.456 158.333 443.566 157.003 441.979 155.23C440.439 153.457 439.669 151.053 439.669 148.02C439.669 145.547 440.323 143.307 441.629 141.3C442.936 139.247 444.943 137.613 447.649 136.4C450.356 135.187 453.716 134.58 457.729 134.58C460.529 134.58 463.259 134.977 465.919 135.77C468.626 136.517 470.959 137.567 472.919 138.92L471.169 143.05C469.116 141.697 466.923 140.693 464.589 140.04C462.256 139.34 459.969 138.99 457.729 138.99C453.436 138.99 450.193 139.83 447.999 141.51C445.853 143.143 444.779 145.267 444.779 147.88C444.779 149.84 445.363 151.427 446.529 152.64C447.743 153.807 449.236 154.717 451.009 155.37C452.829 155.977 455.256 156.653 458.289 157.4C461.883 158.287 464.776 159.173 466.969 160.06C469.209 160.9 471.099 162.207 472.639 163.98C474.179 165.707 474.949 168.063 474.949 171.05C474.949 173.523 474.273 175.787 472.919 177.84C471.613 179.847 469.583 181.457 466.829 182.67C464.076 183.837 460.693 184.42 456.679 184.42ZM500.672 139.48H483.452V135H523.072V139.48H505.852V184H500.672V139.48ZM570.408 184L559.208 168.25C557.948 168.39 556.641 168.46 555.288 168.46H542.128V184H536.948V135H555.288C561.541 135 566.441 136.493 569.988 139.48C573.534 142.467 575.308 146.573 575.308 151.8C575.308 155.627 574.328 158.87 572.368 161.53C570.454 164.143 567.701 166.033 564.108 167.2L576.078 184H570.408ZM555.148 164.05C560.001 164.05 563.711 162.977 566.278 160.83C568.844 158.683 570.128 155.673 570.128 151.8C570.128 147.833 568.844 144.8 566.278 142.7C563.711 140.553 560.001 139.48 555.148 139.48H542.128V164.05H555.148ZM609.25 167.06V184H604.14V167.06L584.54 135H590.07L606.87 162.51L623.67 135H628.85L609.25 167.06ZM687.824 184.42C682.97 184.42 678.56 183.347 674.594 181.2C670.674 179.007 667.594 176.02 665.354 172.24C663.16 168.46 662.064 164.213 662.064 159.5C662.064 154.787 663.16 150.54 665.354 146.76C667.594 142.98 670.674 140.017 674.594 137.87C678.56 135.677 682.97 134.58 687.824 134.58C692.677 134.58 697.04 135.653 700.914 137.8C704.834 139.947 707.914 142.933 710.154 146.76C712.394 150.54 713.514 154.787 713.514 159.5C713.514 164.213 712.394 168.483 710.154 172.31C707.914 176.09 704.834 179.053 700.914 181.2C697.04 183.347 692.677 184.42 687.824 184.42ZM687.824 179.8C691.697 179.8 695.197 178.937 698.324 177.21C701.45 175.437 703.9 173.01 705.674 169.93C707.447 166.803 708.334 163.327 708.334 159.5C708.334 155.673 707.447 152.22 705.674 149.14C703.9 146.013 701.45 143.587 698.324 141.86C695.197 140.087 691.697 139.2 687.824 139.2C683.95 139.2 680.427 140.087 677.254 141.86C674.127 143.587 671.654 146.013 669.834 149.14C668.06 152.22 667.174 155.673 667.174 159.5C667.174 163.327 668.06 166.803 669.834 169.93C671.654 173.01 674.127 175.437 677.254 177.21C680.427 178.937 683.95 179.8 687.824 179.8ZM735.905 139.48V158.73H761.245V163.21H735.905V184H730.725V135H764.325V139.48H735.905ZM785.801 139.48V158.73H811.141V163.21H785.801V184H780.621V135H814.221V139.48H785.801ZM830.518 135H835.698V184H830.518V135ZM878.521 184.42C873.668 184.42 869.281 183.347 865.361 181.2C861.488 179.053 858.431 176.09 856.191 172.31C853.998 168.483 852.901 164.213 852.901 159.5C852.901 154.787 853.998 150.54 856.191 146.76C858.431 142.933 861.511 139.947 865.431 137.8C869.351 135.653 873.738 134.58 878.591 134.58C882.231 134.58 885.591 135.187 888.671 136.4C891.751 137.613 894.365 139.387 896.511 141.72L893.221 145.01C889.395 141.137 884.565 139.2 878.731 139.2C874.858 139.2 871.335 140.087 868.161 141.86C864.988 143.633 862.491 146.06 860.671 149.14C858.898 152.22 858.011 155.673 858.011 159.5C858.011 163.327 858.898 166.78 860.671 169.86C862.491 172.94 864.988 175.367 868.161 177.14C871.335 178.913 874.858 179.8 878.731 179.8C884.611 179.8 889.441 177.84 893.221 173.92L896.511 177.21C894.365 179.543 891.728 181.34 888.601 182.6C885.521 183.813 882.161 184.42 878.521 184.42ZM947.804 179.52V184H913.154V135H946.754V139.48H918.334V156.91H943.674V161.32H918.334V179.52H947.804Z" fill="#2F2F2F"/>
<line x1="49" y1="110.5" x2="911" y2="110.5" stroke="#494949" stroke-width="3"/>
</svg>
